<?xml version="1.0" standalone="no"?>
<!DOCTYPE svg PUBLIC "-//W3C//DTD SVG 20010904//EN"
 "http://www.w3.org/TR/2001/REC-SVG-20010904/DTD/svg10.dtd">
<svg version="1.0" xmlns="http://www.w3.org/2000/svg"
 width="300.000000pt" height="107.000000pt" viewBox="0 0 300.000000 107.000000"
 preserveAspectRatio="xMidYMid meet">
<metadata>
Created by potrace 1.10, written by Peter Selinger 2001-2011
</metadata>
<g transform="translate(0.000000,107.000000) scale(0.100000,-0.100000)"
fill="#000000" stroke="none">
<path d="M108 915 c-32 -18 -52 -72 -39 -106 13 -36 40 -56 103 -74 60 -17 84
-36 75 -60 -14 -34 -107 -26 -107 10 0 11 -11 15 -40 15 -43 0 -46 -4 -30 -44
22 -58 132 -86 200 -51 36 19 50 43 50 88 0 45 -32 74 -106 96 -60 18 -81 37
-71 65 10 27 79 18 92 -11 8 -18 18 -23 48 -23 38 0 39 1 33 28 -4 15 -20 39
-37 55 -25 23 -38 27 -87 27 -31 -1 -69 -7 -84 -15z"/>
<path d="M460 895 l0 -35 50 0 50 0 0 -135 0 -135 40 0 40 0 0 135 0 135 50 0
50 0 0 35 0 35 -140 0 -140 0 0 -35z"/>
<path d="M959 907 c-18 -12 -44 -38 -57 -57 -20 -30 -23 -44 -20 -97 4 -67 21
-100 72 -137 22 -17 42 -21 100 -21 65 0 77 3 110 29 50 37 69 85 64 154 -5
59 -27 95 -78 130 -47 31 -143 31 -191 -1z m165 -73 c61 -62 18 -174 -68 -174
-41 0 -91 38 -100 76 -9 34 10 90 37 109 36 25 100 19 131 -11z"/>
<path d="M1390 760 l0 -170 41 0 42 0 -5 49 -5 49 65 4 c58 4 68 8 93 36 23
26 29 42 29 80 0 89 -48 122 -180 122 l-80 0 0 -170z m172 83 c40 -36 5 -93
-59 -93 l-38 0 0 55 0 55 39 0 c23 0 47 -7 58 -17z"/>
<path d="M1649 685 c0 0 -1 -19 -3 -42 l-2 -43 378 0 378 0 0 43 0 42 -375 0
c-206 0 -375 0 -376 0z"/>
<path d="M150 483 l0 -43 375 0 375 0 0 43 0 42 -375 0 -375 0 0 -42z"/>
<path d="M991 323 c-35 -87 -65 -164 -68 -170 -4 -9 8 -13 40 -13 42 0 46 2
52 30 7 30 7 30 76 30 69 0 70 -1 80 -30 10 -27 15 -30 55 -30 l45 0 -16 30
c-9 17 -40 92 -70 168 l-54 137 -38 3 -39 3 -63 -158z m144 -53 c4 -12 -4 -14
-44 -12 l-49 4 18 41 c9 23 21 51 24 62 6 17 11 11 27 -30 10 -27 21 -57 24
-65z"/>
<path d="M1410 311 l0 -171 100 0 c119 0 153 13 169 63 13 38 4 74 -23 96 -15
13 -15 15 1 33 27 30 22 84 -10 116 -26 25 -34 27 -132 30 l-105 4 0 -171z
m171 99 c21 -12 25 -40 7 -58 -7 -7 -33 -12 -58 -12 l-46 0 4 40 c4 38 6 40
39 40 19 0 43 -5 54 -10z m23 -152 c20 -32 -4 -53 -65 -56 l-54 -3 0 41 0 41
54 -3 c38 -2 57 -8 65 -20z"/>
<path d="M1841 352 c4 -138 13 -164 66 -199 38 -25 124 -23 160 3 51 37 63 76
63 207 l0 117 -40 0 -40 0 0 -118 c0 -133 -8 -152 -68 -152 -51 0 -62 27 -62
157 l0 113 -41 0 -41 0 3 -128z"/>
<path d="M2337 464 c-47 -25 -62 -94 -29 -134 10 -12 49 -32 87 -45 76 -24 97
-44 76 -69 -22 -26 -78 -20 -97 9 -12 19 -25 25 -50 25 -38 0 -43 -14 -19 -59
18 -36 66 -56 130 -55 61 0 100 24 115 68 21 64 -10 102 -112 135 -71 23 -87
41 -61 66 23 23 76 16 88 -12 8 -18 18 -23 47 -23 32 0 38 3 38 21 0 12 -15
36 -34 55 -31 31 -39 34 -92 34 -33 -1 -71 -8 -87 -16z"/>
<path d="M2720 310 l0 -170 115 0 115 0 0 33 0 32 -76 0 -76 0 -3 38 -2 37 69
0 68 0 0 30 0 30 -68 0 -69 0 2 37 3 36 71 -2 71 -2 0 35 0 36 -110 0 -110 0
0 -170z"/>
</g>
</svg>
